<svg xmlns="http://www.w3.org/2000/svg" viewBox="0 0 720 140" width="720" height="140" font-family="Segoe UI, Helvetica, Arial, sans-serif">
<rect x="0" y="0" width="720" height="140" fill="#ffffff"/>
<text x="176" y="28" text-anchor="middle" font-size="12" fill="#4b5563">Area 1</text>
<text x="359" y="28" text-anchor="middle" font-size="12" fill="#4b5563">Area 0（骨干）</text>
<text x="542" y="28" text-anchor="middle" font-size="12" fill="#4b5563">Area 2</text>
<line x1="150" y1="70" x2="203" y2="70" stroke="#9ca3af" stroke-width="2"/>
<line x1="333" y1="70" x2="386" y2="70" stroke="#9ca3af" stroke-width="2"/>
<line x1="516" y1="70" x2="569" y2="70" stroke="#9ca3af" stroke-width="2"/>
<rect x="20" y="44" width="130" height="52" rx="8" fill="#ccfbf1" stroke="#0d9488" stroke-width="1.5"/>
<text x="85" y="66" text-anchor="middle" font-size="15" font-weight="600" fill="#111827">R1</text>
<text x="85" y="84" text-anchor="middle" font-size="11" fill="#4b5563">内部 · 1.1.1.1</text>
<rect x="203" y="44" width="130" height="52" rx="8" fill="#ede9fe" stroke="#7c3aed" stroke-width="1.5"/>
<text x="268" y="66" text-anchor="middle" font-size="15" font-weight="600" fill="#111827">R2</text>
<text x="268" y="84" text-anchor="middle" font-size="11" fill="#4b5563">ABR · 2.2.2.2</text>
<rect x="386" y="44" width="130" height="52" rx="8" fill="#ede9fe" stroke="#7c3aed" stroke-width="1.5"/>
<text x="451" y="66" text-anchor="middle" font-size="15" font-weight="600" fill="#111827">R3</text>
<text x="451" y="84" text-anchor="middle" font-size="11" fill="#4b5563">ABR · 3.3.3.3</text>
<rect x="569" y="44" width="130" height="52" rx="8" fill="#fef3c7" stroke="#d97706" stroke-width="1.5"/>
<text x="634" y="66" text-anchor="middle" font-size="15" font-weight="600" fill="#111827">R4</text>
<text x="634" y="84" text-anchor="middle" font-size="11" fill="#4b5563">内部 · 4.4.4.4</text>
<text x="176" y="120" text-anchor="middle" font-size="11" fill="#374151">10.1.12.0/24</text>
<text x="359" y="120" text-anchor="middle" font-size="11" fill="#374151">10.1.23.0/24</text>
<text x="542" y="120" text-anchor="middle" font-size="11" fill="#374151">10.1.34.0/24</text>
</svg>
