<svg xmlns="http://www.w3.org/2000/svg" viewBox="0 0 720 150" width="720" height="150" font-family="Segoe UI, Helvetica, Arial, sans-serif">
<rect x="0" y="0" width="720" height="150" fill="#ffffff"/>
<rect x="150" y="38" width="412" height="74" rx="10" fill="none" stroke="#0d9488" stroke-width="1.2" stroke-dasharray="4 3"/>
<text x="356" y="34" text-anchor="middle" font-size="11" fill="#0d9488">AS 65001（内部 OSPF + iBGP）</text>
<text x="100" y="34" text-anchor="middle" font-size="11" fill="#4b5563">AS 65002</text>
<text x="620" y="34" text-anchor="middle" font-size="11" fill="#4b5563">AS 65003</text>
<line x1="116" y1="75" x2="160" y2="75" stroke="#9ca3af" stroke-width="2"/>
<line x1="270" y1="75" x2="300" y2="75" stroke="#9ca3af" stroke-width="2"/>
<line x1="410" y1="75" x2="440" y2="75" stroke="#9ca3af" stroke-width="2"/>
<line x1="550" y1="75" x2="594" y2="75" stroke="#9ca3af" stroke-width="2"/>
<rect x="16" y="50" width="100" height="50" rx="8" fill="#ede9fe" stroke="#7c3aed" stroke-width="1.5"/>
<text x="66" y="71" text-anchor="middle" font-size="14" font-weight="600" fill="#111827">R4</text>
<text x="66" y="88" text-anchor="middle" font-size="10" fill="#4b5563">eBGP 对端</text>
<rect x="160" y="50" width="110" height="50" rx="8" fill="#ccfbf1" stroke="#0d9488" stroke-width="1.5"/>
<text x="215" y="71" text-anchor="middle" font-size="14" font-weight="600" fill="#111827">R1</text>
<text x="215" y="88" text-anchor="middle" font-size="10" fill="#4b5563">边界</text>
<rect x="300" y="50" width="110" height="50" rx="8" fill="#ccfbf1" stroke="#0d9488" stroke-width="1.5"/>
<text x="355" y="71" text-anchor="middle" font-size="14" font-weight="600" fill="#111827">R2</text>
<text x="355" y="88" text-anchor="middle" font-size="10" fill="#4b5563">内部</text>
<rect x="440" y="50" width="110" height="50" rx="8" fill="#ccfbf1" stroke="#0d9488" stroke-width="1.5"/>
<text x="495" y="71" text-anchor="middle" font-size="14" font-weight="600" fill="#111827">R3</text>
<text x="495" y="88" text-anchor="middle" font-size="10" fill="#4b5563">边界</text>
<rect x="594" y="50" width="100" height="50" rx="8" fill="#fef3c7" stroke="#d97706" stroke-width="1.5"/>
<text x="644" y="71" text-anchor="middle" font-size="14" font-weight="600" fill="#111827">R5</text>
<text x="644" y="88" text-anchor="middle" font-size="10" fill="#4b5563">eBGP 对端</text>
<text x="138" y="128" text-anchor="middle" font-size="10" fill="#374151">eBGP</text>
<text x="285" y="128" text-anchor="middle" font-size="10" fill="#374151">OSPF</text>
<text x="425" y="128" text-anchor="middle" font-size="10" fill="#374151">OSPF</text>
<text x="572" y="128" text-anchor="middle" font-size="10" fill="#374151">eBGP</text>
</svg>
