<svg xmlns="http://www.w3.org/2000/svg" viewBox="0 0 720 175" width="720" height="175" font-family="Segoe UI, Helvetica, Arial, sans-serif">
<rect x="0" y="0" width="720" height="175" fill="#ffffff"/>
<line x1="215" y1="32" x2="505" y2="32" stroke="#0d9488" stroke-width="1" stroke-dasharray="4 3"/>
<text x="360" y="26" text-anchor="middle" font-size="11" fill="#0d9488">MP-BGP VPNv4：PE ↔ PE（iBGP）</text>
<line x1="125" y1="78" x2="160" y2="78" stroke="#9ca3af" stroke-width="2"/>
<line x1="270" y1="78" x2="305" y2="78" stroke="#9ca3af" stroke-width="2"/>
<line x1="415" y1="78" x2="450" y2="78" stroke="#9ca3af" stroke-width="2"/>
<line x1="560" y1="78" x2="595" y2="78" stroke="#9ca3af" stroke-width="2"/>
<rect x="15" y="52" width="110" height="52" rx="8" fill="#f3f4f6" stroke="#6b7280" stroke-width="1.5"/>
<text x="70" y="74" text-anchor="middle" font-size="14" font-weight="600" fill="#111827">CE1</text>
<text x="70" y="92" text-anchor="middle" font-size="10" fill="#4b5563">客户边缘</text>
<rect x="160" y="52" width="110" height="52" rx="8" fill="#ccfbf1" stroke="#0d9488" stroke-width="1.5"/>
<text x="215" y="74" text-anchor="middle" font-size="14" font-weight="600" fill="#111827">PE1</text>
<text x="215" y="92" text-anchor="middle" font-size="10" fill="#4b5563">VRF CUST-A</text>
<rect x="305" y="52" width="110" height="52" rx="8" fill="#ede9fe" stroke="#7c3aed" stroke-width="1.5"/>
<text x="360" y="74" text-anchor="middle" font-size="14" font-weight="600" fill="#111827">P</text>
<text x="360" y="92" text-anchor="middle" font-size="10" fill="#4b5563">纯标签转发</text>
<rect x="450" y="52" width="110" height="52" rx="8" fill="#ccfbf1" stroke="#0d9488" stroke-width="1.5"/>
<text x="505" y="74" text-anchor="middle" font-size="14" font-weight="600" fill="#111827">PE2</text>
<text x="505" y="92" text-anchor="middle" font-size="10" fill="#4b5563">VRF CUST-A</text>
<rect x="595" y="52" width="110" height="52" rx="8" fill="#f3f4f6" stroke="#6b7280" stroke-width="1.5"/>
<text x="650" y="74" text-anchor="middle" font-size="14" font-weight="600" fill="#111827">CE2</text>
<text x="650" y="92" text-anchor="middle" font-size="10" fill="#4b5563">客户边缘</text>
<text x="142" y="124" text-anchor="middle" font-size="10" fill="#374151">10.1.1.0/24</text>
<text x="287" y="124" text-anchor="middle" font-size="10" fill="#374151">IGP+LDP</text>
<text x="432" y="124" text-anchor="middle" font-size="10" fill="#374151">IGP+LDP</text>
<text x="577" y="124" text-anchor="middle" font-size="10" fill="#374151">10.2.2.0/24</text>
<text x="360" y="156" text-anchor="middle" font-size="11" fill="#7c3aed">P 不保存客户路由；客户隔离靠 VRF + RD/RT，骨干转发用两层标签</text>
</svg>
